General
Complete name                            : /home/baypic/torrents/completed/moc.13.04.09.ava.devine.mp4
Format                                   : MPEG-4
Format profile                           : Base Media
Codec ID                                 : isom
File size                                : 705 MiB
Duration                                 : 32mn 0s
Overall bit rate                         : 3 080 Kbps
Encoded date                             : UTC 2013-03-07 02:47:33
Tagged date                              : UTC 2013-03-07 02:47:33
Writing application                      : Lavf53.32.100

Video
ID                                       : 1
Format                                   : AVC
Format/Info                              : Advanced Video Codec
Format profile                           : Main@L4.0
Format settings, CABAC                   : Yes
Format settings, ReFrames                : 6 frames
Codec ID                                 : avc1
Codec ID/Info                            : Advanced Video Coding
Duration                                 : 32mn 0s
Bit rate                                 : 3 000 Kbps
Width                                    : 1 280 pixels
Height                                   : 720 pixels
Display aspect ratio                     : 16:9
Frame rate mode                          : Constant
Frame rate                               : 29.970 fps
Color space                              : YUV
Chroma subsampling                       : 4:2:0
Bit depth                                : 8 bits
Scan type                                : Progressive
Bits/(Pixel*Frame)                       : 0.109
Stream size                              : 681 MiB (97%)
Writing library                          : x264 core 124 r2019+178 69a0443
Language                                 : English
Encoded date                             : UTC 2013-03-07 02:47:33
Tagged date                              : UTC 2013-03-07 02:47:33

Audio
ID                                       : 2
Format                                   : AAC
Format/Info                              : Advanced Audio Codec
Format profile                           : LC
Codec ID                                 : 40
Duration                                 : 32mn 0s
Bit rate mode                            : Constant
Bit rate                                 : 96.0 Kbps
Channel(s)                               : 2 channels
Channel positions                        : Front: L R
Sampling rate                            : 44.1 KHz
Compression mode                         : Lossy
Stream size                              : 22.0 MiB (3%)
Language                                 : English
Encoded date                             : UTC 2013-03-07 02:47:33
Tagged date                              : UTC 2013-03-07 02:47:33

screens;
 
http://baypic.net/img-51647689747df.html
 
http://baypic.net/img-51647639cb432.html